<svg width="40" height="40" viewBox="0 0 40 40" fill="none" xmlns="http://www.w3.org/2000/svg">
<rect width="40" height="40" fill="#ffffff"/>
<path fill-rule="evenodd" clip-rule="evenodd" d="M5.64357 4.57228V35.4279H24.4998V4.57228H5.64357ZM4.78647 2.00098C3.83974 2.00098 3.07227 2.76845 3.07227 3.71518V36.285C3.07227 37.2317 3.83974 37.9992 4.78647 37.9992H25.3569C26.3036 37.9992 27.0711 37.2317 27.0711 36.285V34.1422H33.772C35.5519 34.1422 36.9277 32.6656 36.9277 30.9281V22.5714V19.3573C36.9277 17.6197 35.5519 16.1431 33.772 16.1431H27.0711V3.71518C27.0711 2.76845 26.3036 2.00098 25.3569 2.00098H4.78647ZM27.0711 18.7144V21.2857H34.3564V19.3573C34.3564 18.9647 34.0578 18.7144 33.772 18.7144H27.0711ZM27.0711 23.857V31.5709H33.772C34.0578 31.5709 34.3564 31.3207 34.3564 30.9281V23.857H27.0711ZM10.7862 9.71488V18.2859H19.3572V9.71488H10.7862ZM9.92907 7.14358C8.98234 7.14358 8.21487 7.91105 8.21487 8.85778V19.143C8.21487 20.0897 8.98234 20.8572 9.92907 20.8572H20.2143C21.161 20.8572 21.9285 20.0897 21.9285 19.143V8.85778C21.9285 7.91105 21.161 7.14358 20.2143 7.14358H9.92907ZM9.07197 24.2856C8.59861 24.2856 8.21487 24.6693 8.21487 25.1427V26.8569C8.21487 27.3303 8.59861 27.714 9.07197 27.714H10.7862C11.2595 27.714 11.6433 27.3303 11.6433 26.8569V25.1427C11.6433 24.6693 11.2595 24.2856 10.7862 24.2856H9.07197ZM18.5001 25.1427C18.5001 24.6693 18.8838 24.2856 19.3572 24.2856H21.0714C21.5447 24.2856 21.9285 24.6693 21.9285 25.1427V26.8569C21.9285 27.3303 21.5447 27.714 21.0714 27.714H19.3572C18.8838 27.714 18.5001 27.3303 18.5001 26.8569V25.1427ZM19.3572 29.4282C18.8838 29.4282 18.5001 29.8119 18.5001 30.2853V31.9995C18.5001 32.4729 18.8838 32.8566 19.3572 32.8566H21.0714C21.5447 32.8566 21.9285 32.4729 21.9285 31.9995V30.2853C21.9285 29.8119 21.5447 29.4282 21.0714 29.4282H19.3572ZM13.3575 25.1427C13.3575 24.6693 13.7412 24.2856 14.2146 24.2856H15.9288C16.4021 24.2856 16.7859 24.6693 16.7859 25.1427V26.8569C16.7859 27.3303 16.4021 27.714 15.9288 27.714H14.2146C13.7412 27.714 13.3575 27.3303 13.3575 26.8569V25.1427ZM14.2146 29.4282C13.7412 29.4282 13.3575 29.8119 13.3575 30.2853V31.9995C13.3575 32.4729 13.7412 32.8566 14.2146 32.8566H15.9288C16.4021 32.8566 16.7859 32.4729 16.7859 31.9995V30.2853C16.7859 29.8119 16.4021 29.4282 15.9288 29.4282H14.2146ZM8.21487 30.2853C8.21487 29.8119 8.59861 29.4282 9.07197 29.4282H10.7862C11.2595 29.4282 11.6433 29.8119 11.6433 30.2853V31.9995C11.6433 32.4729 11.2595 32.8566 10.7862 32.8566H9.07197C8.59861 32.8566 8.21487 32.4729 8.21487 31.9995V30.2853Z" fill="#333333"/>
</svg>
