<svg width="16" height="18" viewBox="0 0 16 18" fill="none" xmlns="http://www.w3.org/2000/svg">
<path fill-rule="evenodd" clip-rule="evenodd" d="M5.41675 4.83333C5.41675 3.4066 6.57335 2.25 8.00008 2.25C9.42682 2.25 10.5834 3.4066 10.5834 4.83333C10.5834 6.26007 9.42682 7.41667 8.00008 7.41667C6.57335 7.41667 5.41675 6.26007 5.41675 4.83333ZM8.00008 0.75C5.74492 0.75 3.91675 2.57817 3.91675 4.83333C3.91675 7.0885 5.74492 8.91667 8.00008 8.91667C10.2552 8.91667 12.0834 7.0885 12.0834 4.83333C12.0834 2.57817 10.2552 0.75 8.00008 0.75ZM4.66658 10.75C3.58362 10.75 2.54501 11.1802 1.77923 11.946C1.01346 12.7118 0.583252 13.7504 0.583252 14.8333V16.5C0.583252 16.9142 0.919038 17.25 1.33325 17.25C1.74747 17.25 2.08325 16.9142 2.08325 16.5V14.8333C2.08325 14.1482 2.35542 13.4911 2.83989 13.0066C3.32436 12.5222 3.98144 12.25 4.66658 12.25H11.3333C12.0184 12.25 12.6755 12.5222 13.1599 13.0066C13.6444 13.4911 13.9166 14.1482 13.9166 14.8333V16.5C13.9166 16.9142 14.2524 17.25 14.6666 17.25C15.0808 17.25 15.4166 16.9142 15.4166 16.5V14.8333C15.4166 13.7504 14.9864 12.7118 14.2206 11.946C13.4548 11.1802 12.4162 10.75 11.3333 10.75H4.66658Z" fill="#808080"/>
</svg>
